<svg width="47" height="43" viewBox="0 0 47 43" fill="none" xmlns="http://www.w3.org/2000/svg">
<path d="M15.5438 32.0562C16.7692 30.8704 17.5332 29.2108 17.5332 27.375C17.5332 23.7812 14.6094 20.8574 11.0156 20.8574C7.42187 20.8574 4.49805 23.7812 4.49805 27.375C4.49805 29.2049 5.25712 30.8599 6.47563 32.0449C2.66009 33.6478 0 37.206 0 41.3281C0 42.0886 0.616508 42.7051 1.37695 42.7051C2.1374 42.7051 2.75391 42.0886 2.75391 41.3281C2.75391 37.2282 6.46011 33.8926 11.0156 33.8926C15.5206 33.8926 19.1855 37.2282 19.1855 41.3281C19.1855 42.0886 19.8021 42.7051 20.5625 42.7051C21.3229 42.7051 21.9395 42.0886 21.9395 41.3281C21.9395 37.2154 19.3136 33.6644 15.5438 32.0562ZM7.25195 27.375C7.25195 25.2997 8.94037 23.6113 11.0156 23.6113C13.0909 23.6113 14.7793 25.2997 14.7793 27.375C14.7793 29.4503 13.0909 31.1387 11.0156 31.1387C8.94037 31.1387 7.25195 29.4503 7.25195 27.375Z" fill="#0C0736"/>
<path d="M25.0605 20.7656C25.0605 21.5261 25.6771 22.1426 26.4375 22.1426C27.1979 22.1426 27.8145 21.5261 27.8145 20.7656C27.8145 16.6657 31.4794 13.3301 35.9844 13.3301C40.5399 13.3301 44.2461 16.6657 44.2461 20.7656C44.2461 21.5261 44.8626 22.1426 45.623 22.1426C46.3835 22.1426 47 21.5261 47 20.7656C47 16.6435 44.3399 13.0853 40.5244 11.4824C41.7429 10.2974 42.502 8.64238 42.502 6.8125C42.502 3.21874 39.5781 0.294922 35.9844 0.294922C32.3906 0.294922 29.4668 3.21874 29.4668 6.8125C29.4668 8.64825 30.2308 10.3079 31.4562 11.4937C27.6864 13.1019 25.0605 16.6529 25.0605 20.7656ZM32.2207 6.8125C32.2207 4.73725 33.9091 3.04883 35.9844 3.04883C38.0596 3.04883 39.748 4.73725 39.748 6.8125C39.748 8.88775 38.0596 10.5762 35.9844 10.5762C33.9091 10.5762 32.2207 8.88775 32.2207 6.8125Z" fill="#0C0736"/>
<path d="M5.7832 17.7362H19.1855C20.7041 17.7362 21.9395 16.5008 21.9395 14.9823V11.953C22.057 11.8346 22.9369 10.849 25.4339 8.01025C27.238 6.20617 26.3461 3.66596 24.0833 3.25453C23.7991 3.20266 25.0236 3.23231 5.7832 3.23231C4.2647 3.23231 3.0293 4.46772 3.0293 5.98622V14.9823C3.0293 16.5008 4.2647 17.7362 5.7832 17.7362ZM5.7832 5.98622C16.4964 5.98622 22.0301 5.98815 23.562 5.98815C23.3899 6.16265 22.4196 7.18389 20.0593 9.84389C19.4952 10.4279 19.1855 11.1676 19.1855 11.953V14.9823H5.7832V5.98622Z" fill="#D71921"/>
<path d="M33.0166 31.3708C32.3839 31.7982 32.2151 32.6412 32.6366 33.2803C33.033 33.8834 33.8818 34.0983 34.5459 33.6603C35.1759 33.2352 35.3495 32.3932 34.926 31.7509C34.5059 31.1269 33.6661 30.944 33.0166 31.3708Z" fill="#D71921"/>
<path d="M38.3061 32.7846C38.5572 33.9956 40.1361 34.2922 40.8011 33.2803C41.4647 32.2742 40.6188 30.9351 39.3875 31.1653C38.6418 31.3202 38.1636 32.0241 38.3061 32.7846Z" fill="#D71921"/>
<path d="M47.0001 37.0136V28.0176C47.0001 26.4991 45.7647 25.2637 44.2462 25.2637C21.5891 25.2637 23.1816 25.2375 22.9168 25.2859C20.654 25.6973 19.7621 28.2374 21.5662 30.0416C24.0632 32.8803 24.943 33.8659 25.0606 33.9843V37.0136C25.0606 38.5321 26.296 39.7675 27.8145 39.7675H44.2462C45.7647 39.7675 47.0001 38.5321 47.0001 37.0136ZM44.2462 37.0136H27.8145V33.9843C27.8145 33.1989 27.5048 32.4592 26.9408 31.8752C24.5804 29.2152 23.6102 28.194 23.4381 28.0195C24.9698 28.0195 33.533 28.0176 44.2462 28.0176V37.0136Z" fill="#D71921"/>
</svg>
