<svg width="44" height="44" viewBox="0 0 44 44" fill="none" xmlns="http://www.w3.org/2000/svg">
<g clip-path="url(#clip0)">
<path d="M31.6231 44C30.2028 44 28.7945 43.7489 27.4174 43.2486C21.3507 41.0447 15.7194 37.4553 11.1323 32.8682C6.5451 28.2811 2.95563 22.6498 0.751858 16.583C0.0436756 14.6334 -0.165316 12.6208 0.130899 10.601C0.408379 8.70906 1.14122 6.8724 2.25029 5.28949C3.36425 3.69963 4.84936 2.37728 6.54501 1.46543C8.35323 0.493089 10.3269 0 12.4113 0C13.0596 0 13.6199 0.452958 13.7557 1.08681L15.9139 11.1582C16.0116 11.6142 15.8714 12.0888 15.5417 12.4186L11.854 16.1062C15.3328 23.0227 20.9776 28.6675 27.8941 32.1463L31.5817 28.4586C31.9114 28.1289 32.3861 27.9889 32.8421 28.0864L42.9135 30.2445C43.5474 30.3804 44.0003 30.9407 44.0003 31.589C44.0003 33.6734 43.5072 35.6471 42.5348 37.4554C41.6229 39.151 40.3006 40.6361 38.7107 41.7501C37.1279 42.8591 35.2912 43.592 33.3992 43.8695C32.8064 43.9565 32.2136 43.9999 31.6231 44ZM11.3127 2.81004C8.56326 3.11356 6.1229 4.55467 4.50236 6.86759C2.68004 9.46838 2.2551 12.6673 3.33649 15.6442C7.57338 27.3077 16.6928 36.4271 28.3563 40.664C31.3331 41.7453 34.5321 41.3205 37.1329 39.4981C39.4458 37.8775 40.8869 35.4372 41.1904 32.6877L32.9974 30.9321L29.1462 34.7833C28.7363 35.1931 28.1137 35.302 27.5893 35.0556C19.4092 31.2126 12.7879 24.5912 8.94489 16.4112C8.69852 15.8867 8.80731 15.264 9.21713 14.8543L13.0683 11.0031L11.3127 2.81004Z" fill="#0C0736"/>
<path d="M42.6248 23.374C41.8655 23.374 41.2499 22.7584 41.2499 21.9991C41.2499 11.385 32.6147 2.74989 22.0007 2.74989C21.2414 2.74989 20.6257 2.13426 20.6257 1.37494C20.6257 0.615631 21.2414 0 22.0007 0C27.8769 0 33.4014 2.28825 37.5564 6.44333C41.7115 10.5984 43.9998 16.1228 43.9998 21.9991C43.9998 22.7584 43.3842 23.374 42.6248 23.374Z" fill="#D71921"/>
<path d="M37.1251 23.374C36.3657 23.374 35.7501 22.7584 35.7501 21.9991C35.7501 14.4176 29.5821 8.24965 22.0007 8.24965C21.2414 8.24965 20.6257 7.63401 20.6257 6.8747C20.6257 6.11539 21.2414 5.49976 22.0007 5.49976C31.0984 5.49976 38.5 12.9013 38.5 21.9991C38.5 22.7584 37.8845 23.374 37.1251 23.374Z" fill="#D71921"/>
<path d="M31.6253 23.3743C30.866 23.3743 30.2503 22.7586 30.2503 21.9993C30.2503 17.4504 26.5496 13.7496 22.0007 13.7496C21.2414 13.7496 20.6257 13.134 20.6257 12.3747C20.6257 11.6154 21.2414 10.9998 22.0007 10.9998C28.0659 10.9998 33.0002 15.9341 33.0002 21.9993C33.0002 22.7586 32.3847 23.3743 31.6253 23.3743Z" fill="#D71921"/>
</g>
<defs>
<clipPath id="clip0">
<rect width="44" height="44" fill="white"/>
</clipPath>
</defs>
</svg>
