<svg width="47" height="47" viewBox="0 0 47 47" fill="none" xmlns="http://www.w3.org/2000/svg">
<g clip-path="url(#clip0)">
<path d="M18.6853 31.6705L25.1763 12.1973C25.4167 11.4759 25.0269 10.696 24.3054 10.4555C23.5841 10.2151 22.8042 10.605 22.5637 11.3264L16.0727 30.7996C15.8323 31.521 16.2222 32.3008 16.9436 32.5413C17.088 32.5894 17.2349 32.6123 17.3792 32.6123C17.9557 32.6124 18.4929 32.2475 18.6853 31.6705Z" fill="#D71921"/>
<path d="M28.4141 25.6296C30.6918 25.6296 32.5449 23.7765 32.5449 21.4988C32.5449 19.221 30.6918 17.3679 28.4141 17.3679C26.1363 17.3679 24.2832 19.221 24.2832 21.4988C24.2832 23.7765 26.1363 25.6296 28.4141 25.6296ZM28.4141 20.1218C29.1733 20.1218 29.791 20.7395 29.791 21.4988C29.791 22.258 29.1733 22.8757 28.4141 22.8757C27.6548 22.8757 27.0371 22.258 27.0371 21.4988C27.0371 20.7395 27.6548 20.1218 28.4141 20.1218Z" fill="#D71921"/>
<path d="M12.8354 17.3679C10.5577 17.3679 8.70459 19.221 8.70459 21.4988C8.70459 23.7765 10.5577 25.6296 12.8354 25.6296C15.1132 25.6296 16.9663 23.7765 16.9663 21.4988C16.9663 19.221 15.1133 17.3679 12.8354 17.3679ZM12.8354 22.8757C12.0762 22.8757 11.4585 22.258 11.4585 21.4988C11.4585 20.7395 12.0762 20.1218 12.8354 20.1218C13.5947 20.1218 14.2124 20.7395 14.2124 21.4988C14.2124 22.258 13.5948 22.8757 12.8354 22.8757Z" fill="#D71921"/>
<path d="M46.7246 17.0744L41.923 10.6723L42.1103 9.36112C42.1716 8.93206 42.0273 8.49914 41.7208 8.19273L38.7999 5.27175L41.7207 2.35077C42.2585 1.81312 42.2585 0.941231 41.7207 0.403485C41.1831 -0.134169 40.3112 -0.134169 39.7735 0.403485L36.8526 3.32446L33.9316 0.403485C33.6252 0.0969751 33.1923 -0.0467788 32.7632 0.0139907L19.132 1.96128C18.8371 2.00341 18.5638 2.1401 18.3531 2.35077L1.47644 19.2274C-0.492146 21.1959 -0.492146 24.3991 1.47644 26.3676L15.7566 40.6479C16.0487 40.94 16.3686 41.1877 16.707 41.3931V41.9514C16.707 44.7353 18.9719 47.0002 21.7558 47.0002H41.9512C44.7351 47.0002 47 44.7353 47 41.9514V17.9006C47 17.6027 46.9033 17.3127 46.7246 17.0744ZM3.42373 24.4203C2.52889 23.5255 2.52889 22.0696 3.42373 21.1747L19.9758 4.62265L32.471 2.83766L34.9052 5.27184L32.9579 7.21913L31.9842 6.24544C31.4466 5.70778 30.5747 5.70778 30.0369 6.24544C29.4992 6.78309 29.4992 7.65498 30.0369 8.19273L33.9316 12.0874C34.2005 12.3563 34.5529 12.4907 34.9052 12.4907C35.2575 12.4907 35.61 12.3563 35.8788 12.0874C36.4165 11.5497 36.4165 10.6779 35.8788 10.1401L34.9051 9.16642L36.8524 7.21913L39.2866 9.65331L37.5015 22.1485L20.9495 38.7006C20.516 39.1341 19.9397 39.3727 19.3267 39.3727C18.7137 39.3727 18.1374 39.134 17.7039 38.7006L3.42373 24.4203ZM44.2461 41.9514C44.2461 43.2168 43.2166 44.2463 41.9512 44.2463H21.7558C20.5474 44.2463 19.5549 43.3074 19.4678 42.1209C20.7132 42.0863 21.9483 41.5963 22.8967 40.6479L39.7734 23.7712C39.984 23.5605 40.1207 23.2873 40.1629 22.9923L41.3721 14.5277L44.2461 18.3596V41.9514Z" fill="#0C0736"/>
</g>
<defs>
<clipPath id="clip0">
<rect width="47" height="47" fill="white"/>
</clipPath>
</defs>
</svg>
