<svg width="48" height="48" viewBox="0 0 48 48" fill="none" xmlns="http://www.w3.org/2000/svg">
<path d="M46 23.9996C46 36.1009 36.172 45.9552 24.0809 46H24.0004C11.8723 46 2 36.1284 2 23.9996C2 11.8716 11.8722 2 24.0004 2H24.0812C36.1722 2.04499 46 11.8993 46 23.9996Z" stroke="#10865C" stroke-width="4"/>
<path d="M32.2434 20.6176L24.1368 28.7253L22.3851 30.477C21.9713 30.8909 21.4285 31.0975 20.8863 31.0975C20.3435 31.0975 19.8013 30.8909 19.387 30.477L15.6207 26.7091C14.7931 25.8815 14.7931 24.5409 15.6207 23.7127C16.4473 22.8851 17.7895 22.8851 18.6172 23.7127L20.8863 25.9818L29.2469 17.6211C30.0746 16.793 31.4169 16.793 32.2434 17.6211C33.071 18.4488 33.071 19.7911 32.2434 20.6176Z" fill="#10865C"/>
</svg>
