<svg width="13" height="12" viewBox="0 0 13 12" fill="none" xmlns="http://www.w3.org/2000/svg">
<path d="M13 0.5625V3.56212C13 4.06512 12.4141 4.31166 12.0753 3.95988L11.2694 3.12295L5.77324 8.83052C5.5617 9.0502 5.21876 9.0502 5.00721 8.83052L4.49653 8.3002C4.28499 8.08052 4.28499 7.72437 4.49653 7.50471L9.99276 1.79709L9.18696 0.960258C8.84682 0.607031 9.08772 0 9.56999 0H12.4583C12.7575 0 13 0.251836 13 0.5625ZM9.18642 6.34673L8.82531 6.72173C8.77501 6.77397 8.73511 6.83598 8.70789 6.90423C8.68067 6.97248 8.66666 7.04562 8.66667 7.11949V10.5H1.44444V3H7.40278C7.54643 2.99999 7.6842 2.94073 7.78578 2.83526L8.14689 2.46026C8.48812 2.10588 8.24645 1.5 7.76389 1.5H1.08333C0.485017 1.5 0 2.00367 0 2.625V10.875C0 11.4963 0.485017 12 1.08333 12H9.02778C9.62609 12 10.1111 11.4963 10.1111 10.875V6.74447C10.1111 6.24333 9.52765 5.99236 9.18642 6.34673Z" fill="#161DBC"/>
</svg>
