<svg width="47" height="47" viewBox="0 0 47 47" fill="none" xmlns="http://www.w3.org/2000/svg">
<circle cx="23.5" cy="23.5" r="23.5" fill="#FFDEDF"/>
<path d="M31.6239 19.0341C31.4169 18.2334 30.8069 17.6028 30.0325 17.3888C28.6288 17 23 17 23 17C23 17 17.3713 17 15.9675 17.3888C15.1931 17.6029 14.5831 18.2334 14.3761 19.0341C14 20.4853 14 23.5131 14 23.5131C14 23.5131 14 26.541 14.3761 27.9922C14.5831 28.7929 15.1931 29.3972 15.9675 29.6112C17.3713 30 23 30 23 30C23 30 28.6287 30 30.0325 29.6112C30.8069 29.3972 31.4169 28.7929 31.6239 27.9922C32 26.541 32 23.5131 32 23.5131C32 23.5131 32 20.4853 31.6239 19.0341V19.0341ZM21.1591 26.2622V20.7641L25.8636 23.5132L21.1591 26.2622V26.2622Z" fill="#D71921"/>
</svg>
