<svg width="47" height="47" viewBox="0 0 47 47" fill="none" xmlns="http://www.w3.org/2000/svg">
<circle cx="23.5" cy="23.5" r="23.5" fill="#FFDEDF"/>
<g clip-path="url(#clip0)">
<path d="M30.999 18.7768C30.5535 19.5417 30.0068 20.1937 29.3592 20.7328C29.3656 20.8774 29.3687 21.0409 29.3687 21.2231C29.3687 22.2359 29.2408 23.2498 28.9849 24.265C28.7291 25.2802 28.3382 26.2519 27.8124 27.1802C27.2866 28.1084 26.6603 28.9307 25.9334 29.6472C25.2065 30.3636 24.3328 30.9349 23.3122 31.3609C22.2916 31.787 21.1978 32 20.0308 32C18.2095 32 16.5322 31.4325 14.999 30.2976C15.2711 30.3326 15.5321 30.35 15.782 30.35C17.3036 30.35 18.6625 29.8092 19.859 28.7274C19.1495 28.7124 18.5142 28.4603 17.9529 27.9713C17.3916 27.4822 17.0054 26.8572 16.7942 26.0964C17.003 26.1423 17.209 26.1653 17.4124 26.1653C17.7051 26.1653 17.9931 26.1212 18.2764 26.0331C17.5193 25.8581 16.8913 25.4229 16.3922 24.7275C15.8932 24.0321 15.6436 23.2295 15.6436 22.3197V22.2728C16.1083 22.5697 16.604 22.7277 17.1307 22.7466C16.6822 22.4016 16.3266 21.9516 16.0639 21.3967C15.8012 20.8418 15.6699 20.2412 15.6699 19.5951C15.6699 18.9137 15.8178 18.2792 16.1137 17.6915C16.9371 18.8576 17.9347 19.7895 19.1067 20.4874C20.2786 21.1853 21.5359 21.5728 22.8785 21.6501C22.8213 21.3747 22.7926 21.0872 22.7925 20.7878C22.7925 19.7424 23.1131 18.8497 23.7542 18.1098C24.3953 17.3699 25.1688 17 26.0747 17C27.0231 17 27.8219 17.3986 28.4712 18.1957C29.2131 18.0261 29.9077 17.7193 30.5551 17.2754C30.3057 18.1813 29.8251 18.8802 29.1133 19.3719C29.7675 19.2822 30.3961 19.0838 30.999 18.7768H30.999Z" fill="#D71921"/>
</g>
<defs>
<clipPath id="clip0">
<rect width="16" height="15" fill="white" transform="translate(15 17)"/>
</clipPath>
</defs>
</svg>
